<svg xmlns="http://www.w3.org/2000/svg" viewBox="0 0 512 512" fill="none" width="200" height="200">
  <path fill="#264DE4" d="M71 460L30 0h451.6L440.5 460 255.6 512z" />
  <path fill="#2965F1" d="M256 480.3l147.4-40.8 31.6-357H256z" />
  <path fill="#EBEBEB" d="M208.6 192.8H157.3l6 66.6H208zm.1-64.4H157.7l-6-65.8h106.7v65.8zm16.2 134.7h-98.7l-9.6-108.6h107.9z" />
  <path fill="#FFF" d="M310.3 259.5l-3.3 33.7H256v-.1l54.8-15.1zm.8-64.4h-106.9V64h106.5v65.1zm-.8 130.1L256 386.6l-54.7-15.6-.2-1.8 54.8-15.1h54.8z" />
</svg>