<svg xmlns="http://www.w3.org/2000/svg" viewBox="0 0 512 512" width="48" height="48">
  <!-- Дельфин -->
  <path d="M200 160c10-30 30-50 60-50 20 0 40 10 60 30 10 10 20 20 20 40 0 20-10 40-30 50-20 10-40 10-60-10-20-20-30-40-50-50z" fill="#00758F" />
  <!-- Линия тела -->
  <path d="M280 120c40 20 70 50 80 90-30-30-60-50-90-60 10-10 20-20 30-30l-10-10c-20 20-30 30-50 30s-30-10-40-30l10-10c20 10 40 30 60 50z" fill="#00758F" />
  <!-- Текст "MySQL" -->
  <text x="50" y="400" font-family="Arial, sans-serif" font-size="100" font-weight="bold" fill="#F29111">
    My
  </text>
  <text x="190" y="400" font-family="Arial, sans-serif" font-size="100" font-weight="bold" fill="#00758F">
    SQL
  </text>
</svg>