<?xml version="1.0" standalone="no"?>
<!DOCTYPE svg PUBLIC "-//W3C//DTD SVG 20010904//EN"
 "http://www.w3.org/TR/2001/REC-SVG-20010904/DTD/svg10.dtd">
<svg version="1.0" xmlns="http://www.w3.org/2000/svg"
 width="512.000000pt" height="512.000000pt" viewBox="0 0 512.000000 512.000000"
 preserveAspectRatio="xMidYMid meet">

<g transform="translate(0.000000,512.000000) scale(0.100000,-0.100000)"
fill="#000000" stroke="none">
<path d="M1385 5114 c-748 -59 -1302 -332 -1375 -679 -7 -34 -9 -536 -8 -1566
l3 -1515 39 -80 c131 -265 539 -476 1072 -553 357 -52 620 -51 1052 5 l52 7 0
-260 c0 -282 4 -311 56 -378 15 -20 53 -48 88 -65 l61 -30 1255 2 1255 3 40
22 c47 25 95 74 121 123 18 33 19 75 19 875 l0 840 -22 41 c-12 22 -40 57 -62
77 -76 69 -50 67 -968 67 l-823 0 -2 1203 -3 1203 -38 77 c-137 277 -569 486
-1161 563 -115 15 -541 27 -651 18z m555 -185 c132 -11 309 -41 424 -70 177
-45 394 -190 475 -318 59 -93 62 -118 59 -553 l-3 -393 -31 -65 c-40 -83 -90
-139 -185 -210 -155 -115 -294 -165 -594 -212 -123 -20 -179 -22 -465 -22
-288 0 -341 2 -469 22 -483 76 -839 246 -947 452 l-29 55 0 395 0 395 24 48
c168 338 932 547 1741 476z m-1721 -1653 c22 -27 172 -118 265 -161 151 -71
366 -135 561 -168 214 -37 283 -42 585 -42 267 0 324 3 460 24 285 42 540 118
727 215 l85 44 -4 -182 c-3 -171 -4 -184 -29 -236 -58 -122 -164 -219 -339
-309 -203 -105 -575 -159 -1004 -148 -323 9 -550 45 -799 128 -205 67 -407
187 -481 283 -65 86 -70 110 -74 359 -4 223 -3 228 15 218 11 -5 25 -17 32
-25z m14 -779 c292 -238 871 -381 1477 -364 451 13 837 98 1118 248 l72 38 0
-184 0 -185 -242 0 c-265 0 -284 -4 -354 -63 -26 -22 -42 -27 -86 -27 -63 0
-109 -25 -145 -79 -21 -31 -23 -45 -23 -171 0 -162 23 -143 -195 -161 -176
-14 -464 -7 -640 16 -517 66 -904 244 -1013 465 -27 54 -27 59 -30 283 -2 125
-1 227 2 227 4 0 30 -19 59 -43z m4662 -632 c21 -8 39 -25 45 -41 7 -17 9
-301 8 -815 l-3 -788 -23 -23 -23 -23 -1225 -3 -1225 -2 -30 29 -29 29 0 794
c0 862 -2 826 54 848 11 5 560 9 1219 9 1025 1 1203 -1 1232 -14z m-4643 -150
c94 -72 301 -173 448 -220 329 -105 770 -153 1145 -126 88 7 170 14 183 18
l22 5 -2 -253 -3 -254 -50 -7 c-27 -4 -162 -10 -300 -14 -280 -7 -454 6 -689
52 -326 64 -635 207 -751 348 -70 85 -79 120 -83 324 -2 100 -2 182 1 182 3 0
39 -25 79 -55z"/>
<path d="M1300 4765 c-148 -18 -331 -58 -445 -97 -281 -96 -427 -232 -429
-398 -3 -242 325 -431 869 -501 150 -20 531 -17 688 5 231 32 470 101 595 173
262 150 316 360 138 537 -123 123 -355 215 -676 267 -166 27 -571 35 -740 14z"/>
<path d="M2870 1527 c-135 -38 -221 -150 -222 -288 -1 -58 4 -79 31 -133 49
-99 123 -151 240 -165 82 -10 106 -22 131 -64 36 -59 20 -135 -37 -173 -24
-16 -51 -20 -175 -22 -137 -4 -148 -5 -168 -27 -44 -47 -19 -129 44 -141 19
-3 95 -4 168 -2 122 3 138 5 190 31 178 87 225 315 96 462 -50 57 -123 95
-197 102 -66 7 -102 23 -130 59 -38 49 -21 146 32 176 14 8 77 15 169 18 138
5 148 6 172 29 36 34 36 88 0 122 -24 23 -33 24 -162 26 -86 2 -154 -2 -182
-10z"/>
<path d="M3672 1524 c-29 -7 -66 -21 -83 -30 -50 -26 -119 -101 -147 -162
l-27 -57 0 -250 0 -250 33 -67 c38 -77 92 -130 171 -167 80 -37 192 -37 271 2
30 14 63 32 72 39 14 10 23 5 62 -30 55 -51 86 -54 127 -13 45 46 40 81 -22
146 l-50 53 11 59 c8 38 10 133 8 264 -5 241 -16 285 -97 368 -55 56 -104 84
-179 100 -66 14 -84 13 -150 -5z m169 -187 c18 -12 44 -38 56 -56 22 -32 23
-43 23 -209 0 -166 -1 -174 -17 -159 -63 56 -156 6 -144 -78 1 -11 23 -41 48
-67 25 -25 43 -51 39 -56 -3 -6 -27 -15 -53 -21 -54 -13 -96 -5 -142 28 -56
40 -61 67 -61 306 0 202 1 220 21 255 43 77 158 106 230 57z"/>
<path d="M4404 1530 c-54 -22 -54 -18 -54 -508 l0 -454 29 -29 29 -29 157 0
157 0 29 29 c33 33 36 58 14 101 -18 35 -32 39 -150 43 l-90 2 -3 401 c-2 400
-2 401 -25 422 -27 25 -65 34 -93 22z"/>
</g>
</svg>
